<?xml version="1.0" encoding="utf-8"?>
<!-- Generator: Adobe Illustrator 19.0.0, SVG Export Plug-In . SVG Version: 6.00 Build 0)  -->
<!DOCTYPE svg PUBLIC "-//W3C//DTD SVG 1.1//EN" "http://www.w3.org/Graphics/SVG/1.1/DTD/svg11.dtd">
<svg version="1.1" id="Layer_1" xmlns="http://www.w3.org/2000/svg" xmlns:xlink="http://www.w3.org/1999/xlink" x="0px" y="0px"
	 viewBox="0 0 190.6 393.5" style="enable-background:new 0 0 190.6 393.5;" xml:space="preserve">
<style type="text/css">
	.st0{fill:#F08027;}
	.st1{opacity:0.2;fill:#FFFFFF;}
	.st2{fill:url(#SVGID_1_);}
	.st3{fill:url(#SVGID_2_);}
	.st4{fill:#54BCBB;}
	.st5{opacity:0.3;fill:url(#SVGID_3_);}
	.st6{fill:url(#SVGID_4_);}
	.st7{filter:url(#Adobe_OpacityMaskFilter);}
	.st8{filter:url(#Adobe_OpacityMaskFilter_1_);}
	.st9{mask:url(#SVGID_5_);fill:url(#SVGID_6_);}
	.st10{fill:url(#SVGID_7_);}
	.st11{fill:#FFFFFF;}
	.st12{fill:#E06837;}
	.st13{fill:url(#SVGID_8_);}
	.st14{fill:url(#SVGID_9_);}
	.st15{opacity:0.3;fill:url(#SVGID_10_);}
	.st16{fill:url(#SVGID_11_);}
	.st17{filter:url(#Adobe_OpacityMaskFilter_2_);}
	.st18{filter:url(#Adobe_OpacityMaskFilter_3_);}
	.st19{mask:url(#SVGID_12_);fill:url(#SVGID_13_);}
	.st20{fill:url(#SVGID_14_);}
	.st21{fill:url(#SVGID_15_);}
	.st22{opacity:0.3;}
	.st23{fill:#686969;}
	.st24{fill:#1B8178;}
	.st25{fill:#4A2911;}
	.st26{opacity:0.3;fill:#FFFFFF;}
	.st27{opacity:0.8;}
	.st28{clip-path:url(#SVGID_17_);}
	.st29{fill:none;}
	.st30{fill:#BE564D;}
	.st31{fill:#ABBFBF;}
	.st32{fill:#6B6E5B;}
	.st33{fill:#6DAFA2;}
</style>
<g>
	<path class="st0" d="M129.2,99.4c0.6-17,13.9-41.3,28.2-48.5c0.7-0.3,1.3-0.6,1.9-0.9c0.1,0,0.1-0.1,0.2-0.1
		c6.3-3.1,11.2-8.4,13.2-15c3.9-13-4.9-26.4-19.7-29.8c-14.8-3.5-30,4.3-33.9,17.3c-2,6.6-0.7,13.3,3.1,18.8c0,0.1,0.1,0.1,0.1,0.2
		c0.4,0.5,0.8,1.1,1.2,1.6c8.1,12,6.5,37.2-1.7,52.6c0.8-1.5-25.4-6.1-27.9-6.3c-14.3-1.1-28.2,1.4-41.8,5.8
		c-8.6,2.8-5.2-47.2-1.9-52c0.4-0.5,0.8-1.1,1.2-1.6c0-0.1,0.1-0.1,0.1-0.2c3.7-5.5,5-12.2,3.1-18.8C50.7,9.4,35.5,1.6,20.7,5.1
		C5.8,8.5-3,21.9,0.9,34.9c2,6.6,6.9,11.9,13.2,15c0.1,0,0.1,0.1,0.2,0.1c0.6,0.3,1.3,0.6,1.9,0.9c14.3,7.2,27.6,31.5,28.2,48.5
		c-12.9,7.5-24.1,18.4-32,32.8C-0.4,156,2,181.3,14.4,204.6c8.6,16.1,39.5,43.5,31.4,63.4c-7.9,19.4-26.8,33.9-35.1,53.5
		c-6.6,15.7,13.6,32.7,26.1,14.6c0,0,0,0,0,0c4.2-6.1,6-13.9,11.5-18.6c4.1,17.8-9.6,72.1,18.5,75.9c10.9,1.5,7.6-17.1,20-18.7
		c12.4,1.6,9.1,20.2,20,18.7c28-3.8,14.4-58.1,18.5-75.9c5.6,4.6,7.3,12.4,11.5,18.6c0,0,0,0,0,0c12.5,18.1,32.7,1,26.1-14.6
		c-8.3-19.7-27.2-34.1-35.1-53.6c-7.8-19.3,10.1-34.9,21-48.5C179.4,181.3,172.5,124.4,129.2,99.4z"/>
	<g>
		<path class="st1" d="M31.6,16.7C21,13,10.1,16.6,5.9,24.6c-0.1,2.3,0.2,4.7,0.9,7C10.3,43,22.2,49.4,33.5,46
			c6.6-2,11.5-7,13.7-13.1C45.5,25.9,39.7,19.5,31.6,16.7z"/>
		<g>
			
				<radialGradient id="SVGID_1_" cx="1071.2671" cy="-606.9564" r="34.9978" gradientTransform="matrix(0.5772 9.460000e-02 -9.460000e-02 0.5772 -648.9873 277.2678)" gradientUnits="userSpaceOnUse">
				<stop  offset="0" style="stop-color:#FFFFFF"/>
				<stop  offset="0.1553" style="stop-color:#FAFAFB"/>
				<stop  offset="1" style="stop-color:#E3E4E5"/>
			</radialGradient>
			<path class="st2" d="M23.5,48.3C12.3,46.5,4.6,36,6.4,24.9c1.8-11,12.4-18.5,23.7-16.7c11.2,1.8,18.9,12.3,17.1,23.4
				C45.3,42.7,34.7,50.2,23.5,48.3L23.5,48.3z"/>
			
				<radialGradient id="SVGID_2_" cx="1071.2706" cy="-605.4387" r="33.6443" gradientTransform="matrix(0.5772 9.460000e-02 -9.460000e-02 0.5772 -648.9873 277.2678)" gradientUnits="userSpaceOnUse">
				<stop  offset="0" style="stop-color:#FFFFFF"/>
				<stop  offset="0.4047" style="stop-color:#FCFCFC"/>
				<stop  offset="0.7319" style="stop-color:#F2F2F3"/>
				<stop  offset="1" style="stop-color:#E3E4E5"/>
			</radialGradient>
			<path class="st3" d="M46.3,32.4C44.6,43,34.4,50.1,23.5,48.3C12.6,46.5,5.2,36.5,6.9,25.9C8.7,15.3,18.9,8.2,29.8,10
				C40.6,11.8,48,21.8,46.3,32.4z"/>
			<g>
				<path class="st4" d="M31.9,41.4c-7.3,2.3-15.1-1.8-17.3-9c-2.2-7.2,1.9-14.9,9.3-17.2c7.3-2.3,15.1,1.8,17.3,9
					C43.4,31.5,39.3,39.2,31.9,41.4L31.9,41.4z"/>
				<path class="st4" d="M41,23.7c2.1,6.9-1.9,14.3-9,16.5c-7.1,2.2-14.6-1.7-16.7-8.6c-2.1-6.9,1.9-14.3,9-16.4
					C31.4,12.9,38.9,16.8,41,23.7z"/>
			</g>
			
				<radialGradient id="SVGID_3_" cx="882.5796" cy="-1098.3629" r="24.0423" gradientTransform="matrix(0.372 0.2332 -0.2886 0.3134 -615.3259 164.7569)" gradientUnits="userSpaceOnUse">
				<stop  offset="0" style="stop-color:#231F20"/>
				<stop  offset="0.2268" style="stop-color:#262223"/>
				<stop  offset="0.3683" style="stop-color:#2E2A2B"/>
				<stop  offset="0.4866" style="stop-color:#3C393A"/>
				<stop  offset="0.5921" style="stop-color:#514D4E"/>
				<stop  offset="0.6891" style="stop-color:#6B6869"/>
				<stop  offset="0.7798" style="stop-color:#8B898A"/>
				<stop  offset="0.8657" style="stop-color:#B2B0B1"/>
				<stop  offset="0.9456" style="stop-color:#DDDCDC"/>
				<stop  offset="1" style="stop-color:#FFFFFF"/>
			</radialGradient>
			<path class="st5" d="M30.5,35.5c-6.4,0.3-11.7-3.5-12-8.6c-0.3-5.1,4.7-9.5,11-9.8c6.4-0.3,11.7,3.5,12,8.6
				C41.8,30.8,36.8,35.2,30.5,35.5z"/>
			
				<linearGradient id="SVGID_4_" gradientUnits="userSpaceOnUse" x1="1249.6124" y1="337.5006" x2="1266.7523" y2="337.5006" gradientTransform="matrix(0.9676 0.2523 -0.2523 0.9676 -1102.7164 -614.2399)">
				<stop  offset="0" style="stop-color:#3B3A3C"/>
				<stop  offset="1" style="stop-color:#231F20"/>
			</linearGradient>
			<path class="st6" d="M37.8,31.9c-1.2,4.6-5.9,7.3-10.5,6.1c-4.6-1.2-7.3-5.9-6.1-10.5c1.2-4.6,5.9-7.3,10.4-6.1
				C36.3,22.7,39,27.3,37.8,31.9z"/>
			<defs>
				<filter id="Adobe_OpacityMaskFilter" filterUnits="userSpaceOnUse" x="23.8" y="21.6" width="13.3" height="13.9">
					<feFlood  style="flood-color:white;flood-opacity:1" result="back"/>
					<feBlend  in="SourceGraphic" in2="back" mode="normal"/>
				</filter>
			</defs>
			<mask maskUnits="userSpaceOnUse" x="23.8" y="21.6" width="13.3" height="13.9" id="SVGID_5_">
				<g class="st7">
					<defs>
						<filter id="Adobe_OpacityMaskFilter_1_" filterUnits="userSpaceOnUse" x="23.8" y="21.6" width="13.3" height="13.9">
							<feFlood  style="flood-color:white;flood-opacity:1" result="back"/>
							<feBlend  in="SourceGraphic" in2="back" mode="normal"/>
						</filter>
					</defs>
					<mask maskUnits="userSpaceOnUse" x="23.8" y="21.6" width="13.3" height="13.9" id="SVGID_5_">
						<g class="st8">
						</g>
					</mask>
					
						<linearGradient id="SVGID_6_" gradientUnits="userSpaceOnUse" x1="1264.6207" y1="332.1948" x2="1259.5844" y2="335.6195" gradientTransform="matrix(0.9676 0.2523 -0.2523 0.9676 -1102.7164 -614.2399)">
						<stop  offset="0" style="stop-color:#FFFFFF"/>
						<stop  offset="1" style="stop-color:#000000"/>
					</linearGradient>
					<path class="st9" d="M35.8,32.1c-2.2,3.3-6.4,4.4-9.3,2.5c-3-2-3.6-6.2-1.4-9.5c2.2-3.3,6.4-4.4,9.3-2.5
						C37.4,24.6,38,28.8,35.8,32.1z"/>
				</g>
			</mask>
			
				<linearGradient id="SVGID_7_" gradientUnits="userSpaceOnUse" x1="1264.6207" y1="332.1948" x2="1259.5844" y2="335.6195" gradientTransform="matrix(0.9676 0.2523 -0.2523 0.9676 -1102.7164 -614.2399)">
				<stop  offset="0" style="stop-color:#231F20"/>
				<stop  offset="1" style="stop-color:#231F20"/>
			</linearGradient>
			<path class="st10" d="M35.8,32.1c-2.2,3.3-6.4,4.4-9.3,2.5c-3-2-3.6-6.2-1.4-9.5c2.2-3.3,6.4-4.4,9.3-2.5
				C37.4,24.6,38,28.8,35.8,32.1z"/>
			<path class="st11" d="M28.3,35.9c-0.4,1.6-2.1,2.6-3.7,2.2c-1.6-0.4-2.6-2.1-2.2-3.7c0.4-1.6,2.1-2.6,3.7-2.2
				C27.7,32.6,28.7,34.3,28.3,35.9z"/>
			<path class="st12" d="M43.5,15.5c-3.2-3.8-7.7-6.6-13.1-7.5C18.9,6.1,8,13.7,6.2,24.9C6,26,5.9,27.1,5.9,28.2
				c0,1.5,11.7,1.4,13.2,1.2c5-0.5,9.9-2.1,14.3-4.6C34.5,24.2,44.6,16.9,43.5,15.5z"/>
		</g>
	</g>
	<g>
		<path class="st1" d="M139.8,16.7c10.6-3.7,21.4-0.1,25.7,8c0.1,2.3-0.2,4.7-0.9,7C161.1,43,149.1,49.4,137.9,46
			c-6.6-2-11.5-7-13.7-13.1C125.8,25.9,131.6,19.5,139.8,16.7z"/>
		<g>
			
				<radialGradient id="SVGID_8_" cx="6225.2417" cy="-1451.6649" r="34.9998" gradientTransform="matrix(-0.5772 9.460000e-02 9.460000e-02 0.5772 3875.0999 277.2678)" gradientUnits="userSpaceOnUse">
				<stop  offset="0" style="stop-color:#FFFFFF"/>
				<stop  offset="0.1553" style="stop-color:#FAFAFB"/>
				<stop  offset="1" style="stop-color:#E3E4E5"/>
			</radialGradient>
			<path class="st13" d="M147.8,48.3c11.2-1.8,18.9-12.3,17.1-23.4c-1.8-11-12.4-18.5-23.7-16.7c-11.2,1.8-18.9,12.3-17.1,23.4
				C126,42.7,136.6,50.2,147.8,48.3L147.8,48.3z"/>
			
				<radialGradient id="SVGID_9_" cx="6225.2432" cy="-1450.1473" r="33.6426" gradientTransform="matrix(-0.5772 9.460000e-02 9.460000e-02 0.5772 3875.0999 277.2678)" gradientUnits="userSpaceOnUse">
				<stop  offset="0" style="stop-color:#FFFFFF"/>
				<stop  offset="0.4047" style="stop-color:#FCFCFC"/>
				<stop  offset="0.7319" style="stop-color:#F2F2F3"/>
				<stop  offset="1" style="stop-color:#E3E4E5"/>
			</radialGradient>
			<path class="st14" d="M125,32.4c1.7,10.6,11.9,17.7,22.8,15.9c10.9-1.8,18.3-11.8,16.5-22.4c-1.7-10.6-11.9-17.7-22.8-15.9
				C130.7,11.8,123.3,21.8,125,32.4z"/>
			<g>
				<path class="st4" d="M139.4,41.4c7.3,2.3,15.1-1.8,17.3-9c2.2-7.2-1.9-14.9-9.3-17.2c-7.3-2.3-15.1,1.8-17.3,9
					C127.9,31.5,132.1,39.2,139.4,41.4L139.4,41.4z"/>
				<path class="st4" d="M130.3,23.7c-2.1,6.9,1.9,14.3,9,16.5c7.1,2.2,14.6-1.7,16.7-8.6c2.1-6.9-1.9-14.3-9-16.4
					C139.9,12.9,132.4,16.8,130.3,23.7z"/>
			</g>
			
				<radialGradient id="SVGID_10_" cx="6088.8882" cy="-4972.3628" r="24.0428" gradientTransform="matrix(-0.372 0.2332 0.2886 0.3134 3841.4385 164.7569)" gradientUnits="userSpaceOnUse">
				<stop  offset="0" style="stop-color:#231F20"/>
				<stop  offset="0.2268" style="stop-color:#262223"/>
				<stop  offset="0.3683" style="stop-color:#2E2A2B"/>
				<stop  offset="0.4866" style="stop-color:#3C393A"/>
				<stop  offset="0.5921" style="stop-color:#514D4E"/>
				<stop  offset="0.6891" style="stop-color:#6B6869"/>
				<stop  offset="0.7798" style="stop-color:#8B898A"/>
				<stop  offset="0.8657" style="stop-color:#B2B0B1"/>
				<stop  offset="0.9456" style="stop-color:#DDDCDC"/>
				<stop  offset="1" style="stop-color:#FFFFFF"/>
			</radialGradient>
			<path class="st15" d="M140.9,35.5c6.4,0.3,11.7-3.5,12-8.6c0.3-5.1-4.7-9.5-11-9.8c-6.4-0.3-11.7,3.5-12,8.6
				C129.6,30.8,134.5,35.2,140.9,35.5z"/>
			
				<linearGradient id="SVGID_11_" gradientUnits="userSpaceOnUse" x1="4205.7002" y1="-433.2947" x2="4222.8413" y2="-433.2947" gradientTransform="matrix(-0.9676 0.2523 0.2523 0.9676 4328.8301 -614.2399)">
				<stop  offset="0" style="stop-color:#3B3A3C"/>
				<stop  offset="1" style="stop-color:#231F20"/>
			</linearGradient>
			<path class="st16" d="M133.5,31.9c1.2,4.6,5.9,7.3,10.5,6.1c4.6-1.2,7.3-5.9,6.1-10.5c-1.2-4.6-5.9-7.3-10.5-6.1
				C135,22.7,132.3,27.3,133.5,31.9z"/>
			<defs>
				<filter id="Adobe_OpacityMaskFilter_2_" filterUnits="userSpaceOnUse" x="134.2" y="21.6" width="13.3" height="13.9">
					<feFlood  style="flood-color:white;flood-opacity:1" result="back"/>
					<feBlend  in="SourceGraphic" in2="back" mode="normal"/>
				</filter>
			</defs>
			<mask maskUnits="userSpaceOnUse" x="134.2" y="21.6" width="13.3" height="13.9" id="SVGID_12_">
				<g class="st17">
					<defs>
						<filter id="Adobe_OpacityMaskFilter_3_" filterUnits="userSpaceOnUse" x="134.2" y="21.6" width="13.3" height="13.9">
							<feFlood  style="flood-color:white;flood-opacity:1" result="back"/>
							<feBlend  in="SourceGraphic" in2="back" mode="normal"/>
						</filter>
					</defs>
					<mask maskUnits="userSpaceOnUse" x="134.2" y="21.6" width="13.3" height="13.9" id="SVGID_12_">
						<g class="st18">
						</g>
					</mask>
					
						<linearGradient id="SVGID_13_" gradientUnits="userSpaceOnUse" x1="4220.709" y1="-438.5995" x2="4215.6733" y2="-435.1753" gradientTransform="matrix(-0.9676 0.2523 0.2523 0.9676 4328.8301 -614.2399)">
						<stop  offset="0" style="stop-color:#FFFFFF"/>
						<stop  offset="1" style="stop-color:#000000"/>
					</linearGradient>
					<path class="st19" d="M135.5,32.1c2.2,3.3,6.4,4.4,9.3,2.5c3-2,3.6-6.2,1.4-9.5c-2.2-3.3-6.4-4.4-9.3-2.5
						C133.9,24.6,133.3,28.8,135.5,32.1z"/>
				</g>
			</mask>
			
				<linearGradient id="SVGID_14_" gradientUnits="userSpaceOnUse" x1="4220.709" y1="-438.5995" x2="4215.6733" y2="-435.1753" gradientTransform="matrix(-0.9676 0.2523 0.2523 0.9676 4328.8301 -614.2399)">
				<stop  offset="0" style="stop-color:#231F20"/>
				<stop  offset="1" style="stop-color:#231F20"/>
			</linearGradient>
			<path class="st20" d="M135.5,32.1c2.2,3.3,6.4,4.4,9.3,2.5c3-2,3.6-6.2,1.4-9.5c-2.2-3.3-6.4-4.4-9.3-2.5
				C133.9,24.6,133.3,28.8,135.5,32.1z"/>
			<path class="st11" d="M143.1,35.9c0.4,1.6,2.1,2.6,3.7,2.2c1.6-0.4,2.6-2.1,2.2-3.7c-0.4-1.6-2.1-2.6-3.7-2.2
				C143.6,32.6,142.6,34.3,143.1,35.9z"/>
			<path class="st12" d="M127.9,15.5c3.2-3.8,7.7-6.6,13.1-7.5c11.5-1.9,22.4,5.7,24.2,16.9c0.2,1.1,0.2,2.2,0.2,3.3
				c0,1.5-11.7,1.4-13.2,1.2c-5-0.5-9.9-2.1-14.3-4.6C136.8,24.2,126.7,16.9,127.9,15.5z"/>
		</g>
	</g>
	<g>
		<g>
			
				<linearGradient id="SVGID_15_" gradientUnits="userSpaceOnUse" x1="50.6651" y1="-179.0939" x2="51.7377" y2="-124.927" gradientTransform="matrix(-0.9862 -0.1658 -0.1658 0.9862 171.0371 193.8066)">
				<stop  offset="0" style="stop-color:#FFFFFF"/>
				<stop  offset="1" style="stop-color:#1B75BB"/>
			</linearGradient>
			<path class="st21" d="M116,27.1c-2.8,16.7,8.5,32.6,25.2,35.4c16.7,2.8,32.6-8.5,35.4-25.2c2.8-16.7-8.5-32.6-25.2-35.4
				C134.7-0.9,118.8,10.3,116,27.1z"/>
			<g class="st22">
				<g>
					<path class="st23" d="M113,32.7c0.1-17.7,14.6-32.1,32.4-32c17.7,0.1,32.1,14.6,32,32.4c-0.1,17.7-14.6,32.1-32.4,32
						C127.3,64.9,112.9,50.4,113,32.7z M116.2,32.7c-0.1,16,12.8,29.1,28.8,29.2c16,0.1,29.1-12.8,29.2-28.8
						c0.1-16-12.8-29.1-28.8-29.2C129.4,3.8,116.3,16.7,116.2,32.7z"/>
				</g>
				<g>
					<path class="st23" d="M184.4,141.8c0.6,0.1,1.2,0.1,1.7,0.2c4.3-37.2,4.6-74.8,0.7-112.1c-0.6,0.1-1.2,0.1-1.7,0.2
						C189,67.3,188.7,104.7,184.4,141.8z"/>
				</g>
				<path class="st23" d="M174.6,31.4c0,1.5,1.2,2.8,2.8,2.8l7.9,0c1.5,0,2.8-1.2,2.8-2.8l0,0c0-1.5-1.2-2.8-2.8-2.8l-7.9,0
					C175.9,28.6,174.6,29.9,174.6,31.4L174.6,31.4z"/>
			</g>
			<g>
				<g>
					<path class="st24" d="M114,32c0.1-17.7,14.6-32.1,32.4-32c17.7,0.1,32.1,14.6,32,32.4c-0.1,17.7-14.6,32.1-32.4,32
						C128.3,64.2,113.9,49.7,114,32z M117.2,32C117.1,48,130,61.1,146,61.2c16,0.1,29.1-12.8,29.2-28.8c0.1-16-12.8-29.1-28.8-29.2
						C130.4,3.1,117.3,16,117.2,32z"/>
				</g>
				<g>
					<path class="st25" d="M185.4,141.1c0.6,0.1,1.2,0.1,1.7,0.2c4.3-37.2,4.6-74.8,0.7-112.1c-0.6,0.1-1.2,0.1-1.7,0.2
						C190,66.6,189.7,104,185.4,141.1z"/>
				</g>
				<path class="st24" d="M175.6,30.7c0,1.5,1.2,2.8,2.8,2.8l7.9,0c1.5,0,2.8-1.2,2.8-2.7l0,0c0-1.5-1.2-2.8-2.8-2.8l-7.9,0
					C176.9,27.9,175.6,29.1,175.6,30.7L175.6,30.7z"/>
			</g>
		</g>
		<path class="st11" d="M165.7,6.6c2.3,1.8,4.4,3.6,6,6c0.6,0.9,3.5,5.1,2.6,6.3c-1.2,1.6-3.6-3.4-4-4.1c-1.5-2.8-3.5-5-6-6.9
			C163,7,164.4,5.7,165.7,6.6z"/>
		<path class="st11" d="M161.9,4.2c1.4,0.7,0.6,2.4-0.8,1.7C159.6,5.2,160.4,3.5,161.9,4.2z"/>
		<path class="st26" d="M141.1,7c11.1,1.5,19.8,6.5,24.4,13.1c2.5,2.3,7.3,14.6,3.5,16.3c-3.4,2.4-6.9-10-8.7-11.7
			c-4.2-6.9-12.2-12.2-24.1-13C130.2,11.6,134.9,6.2,141.1,7z"/>
	</g>
	<g>
		<g>
			<path class="st25" d="M149.8,172.8c1.3,8.5-7.4,20.7-27.8,23.5c-12.3,1.7-30.3,0.2-35.3-6.2c-3.2-4.1-3.6-12.4-1.3-15.8
				c3.7-5.3,14.5-6.7,18.7-4.3c10.8,6.2,8.4,14.8,16.8,17.6c5.8,1.9,15.7,1.5,21.1-3.6c2.4-2.3,5.6-6.9,3.7-9.9
				c-6.1,1.5-6.2-5.4-3.4-6.7C144.2,166.7,148.7,165.8,149.8,172.8z"/>
			<path class="st25" d="M19,172.8c-1.3,8.5,7.4,20.7,27.8,23.5c12.3,1.7,30.3,0.2,35.3-6.2c3.2-4.1,3.6-12.4,1.3-15.8
				c-3.7-5.3-14.5-6.7-18.7-4.3c-10.8,6.2-8.4,14.8-16.8,17.6c-5.8,1.9-15.7,1.5-21.1-3.6c-2.4-2.3-5.6-6.9-3.7-9.9
				c6.1,1.5,6.2-5.4,3.4-6.7C24.6,166.7,20.1,165.8,19,172.8z"/>
		</g>
	</g>
	<path class="st24" d="M87.7,267.2c20.4,1.5,35.5,0.4,39.7-4.5l0.2,0c0.4,0.9,0.6,1.7,0.6,2.6c-0.6,7.4-22.4,10.1-40.9,8.7
		c-18.4-1.4-43-2.2-42.4-9.6c0.1-0.6,0.2-1.2,0.5-1.8l0.7,0C50.7,267.9,68.3,265.8,87.7,267.2z"/>
	<g>
		<g>
			
				<image style="overflow:visible;" width="109" height="363" id="XMLID_30_" xlink:href="61D21BD09B94598B.png"  transform="matrix(0.24 0 0 0.24 73.8795 272.546)">
			</image>
			
				<image style="overflow:visible;" width="44" height="39" id="XMLID_29_" xlink:href="61D21BD09B945989.png"  transform="matrix(0.24 0 0 0.24 82.3817 267.9833)">
			</image>
		</g>
		<g class="st27">
			<g>
				<defs>
					<path id="SVGID_16_" d="M87.6,268.2c0,0-4.5-0.7-4.9,0.6c-0.4,1.3,1.2,1.9,2.1,3.7c0.9,1.7-1.3,5.8-2.3,10.2
						c-1,4.4-8.5,64.3-8.5,64.3l12.9,12.5l12.8-12.3c0,0-4.4-54.4-7.2-64.4c-1-3.6-2.5-7.4-2.5-7.4s1.8-4.3,2.3-5.3
						c0.4-1,1.2,0.5,0.4-1C92,267.5,87.6,268.2,87.6,268.2z"/>
				</defs>
				<clipPath id="SVGID_17_">
					<use xlink:href="#SVGID_16_"  style="overflow:visible;"/>
				</clipPath>
				<g class="st28">
					<rect x="50.9" y="254.7" class="st29" width="106.2" height="106.1"/>
					<g>
						<g>
							<g>
								<polygon class="st30" points="157.1,254.7 157.1,263.5 152.7,259.1 								"/>
							</g>
							<g>
								
									<rect x="149.5" y="260.4" transform="matrix(-0.707 0.7072 -0.7072 -0.707 446.954 341.8694)" class="st31" width="6.3" height="6.3"/>
							</g>
							<g>
								<polygon class="st32" points="157.1,263.5 157.1,272.4 152.7,267.9 								"/>
							</g>
							<g>
								<polygon class="st31" points="139.4,254.7 148.2,254.7 143.8,259.1 								"/>
							</g>
							<g>
								
									<rect x="145.1" y="256" transform="matrix(0.7071 0.7071 -0.7071 0.7071 226.6216 -28.9349)" class="st32" width="6.3" height="6.3"/>
							</g>
							<g>
								<polygon class="st33" points="148.2,254.7 157.1,254.7 152.7,259.1 								"/>
							</g>
							<g>
								
									<rect x="136.3" y="256" transform="matrix(0.7071 0.7071 -0.7071 0.7071 224.0345 -22.6783)" class="st30" width="6.3" height="6.3"/>
							</g>
							<g>
								
									<rect x="136.3" y="264.8" transform="matrix(0.707 0.7073 -0.7073 0.707 230.3524 -20.0674)" class="st32" width="6.3" height="6.3"/>
							</g>
							<g>
								
									<rect x="140.7" y="260.4" transform="matrix(-0.707 0.7072 -0.7072 -0.707 431.8525 348.1256)" class="st33" width="6.3" height="6.3"/>
							</g>
							<g>
								
									<rect x="145.1" y="264.8" transform="matrix(-0.7071 -0.7071 0.7071 -0.7071 63.6102 562.228)" class="st30" width="6.3" height="6.3"/>
							</g>
							<g>
								
									<rect x="131.8" y="260.4" transform="matrix(-0.7071 0.7071 -0.7071 -0.7071 416.7385 354.418)" class="st31" width="6.3" height="6.3"/>
							</g>
							<g>
								<polygon class="st31" points="121.7,254.7 130.5,254.7 126.1,259.1 								"/>
							</g>
							<g>
								
									<rect x="127.4" y="256" transform="matrix(0.707 0.7072 -0.7072 0.707 221.4734 -16.4119)" class="st32" width="6.3" height="6.3"/>
							</g>
							<g>
								<polygon class="st33" points="130.5,254.7 139.4,254.7 135,259.1 								"/>
							</g>
							<g>
								
									<rect x="118.6" y="256" transform="matrix(0.7071 0.7071 -0.7071 0.7071 218.8511 -10.1667)" class="st30" width="6.3" height="6.3"/>
							</g>
							<g>
								
									<rect x="118.6" y="264.8" transform="matrix(0.707 0.7073 -0.7073 0.707 225.1663 -7.5531)" class="st32" width="6.3" height="6.3"/>
							</g>
							<g>
								
									<rect x="123" y="260.4" transform="matrix(-0.7071 0.7071 -0.7071 -0.7071 401.6356 360.6731)" class="st33" width="6.3" height="6.3"/>
							</g>
							<g>
								
									<rect x="127.4" y="264.8" transform="matrix(0.7069 0.7073 -0.7073 0.7069 227.7906 -13.799)" class="st30" width="6.3" height="6.3"/>
							</g>
							<g>
								
									<rect x="114.1" y="260.4" transform="matrix(-0.707 0.7073 -0.7073 -0.707 386.5575 366.8673)" class="st31" width="6.3" height="6.3"/>
							</g>
							<g>
								<polygon class="st31" points="104,254.7 112.9,254.7 108.4,259.1 								"/>
							</g>
							<g>
								
									<rect x="109.7" y="256" transform="matrix(0.7072 0.707 -0.707 0.7072 216.2305 -3.9235)" class="st32" width="6.3" height="6.3"/>
							</g>
							<g>
								<polygon class="st33" points="112.9,254.7 121.7,254.7 117.3,259.1 								"/>
							</g>
							<g>
								<polygon class="st30" points="104,263.5 104,254.7 108.4,259.1 								"/>
							</g>
							<g>
								<polygon class="st32" points="104,272.4 104,263.5 108.4,267.9 								"/>
							</g>
							<g>
								
									<rect x="105.3" y="260.4" transform="matrix(0.7073 -0.7069 0.7069 0.7073 -154.5468 153.7813)" class="st33" width="6.3" height="6.3"/>
							</g>
							<g>
								
									<rect x="109.7" y="264.8" transform="matrix(0.707 0.7072 -0.7072 0.707 222.5437 -1.3093)" class="st30" width="6.3" height="6.3"/>
							</g>
							<g>
								
									<rect x="105.3" y="269.2" transform="matrix(0.7074 -0.7068 0.7068 0.7074 -160.7819 156.3255)" class="st31" width="6.3" height="6.3"/>
							</g>
							<g>
								
									<rect x="114.1" y="269.2" transform="matrix(0.7073 -0.7069 0.7069 0.7073 -158.206 162.6094)" class="st33" width="6.3" height="6.3"/>
							</g>
							<g>
								
									<rect x="114.1" y="278.1" transform="matrix(0.7071 -0.7072 0.7072 0.7071 -164.5047 165.3097)" class="st31" width="6.3" height="6.3"/>
							</g>
							<g>
								
									<rect x="118.6" y="282.5" transform="matrix(-0.7071 -0.7071 0.7071 -0.7071 5.7617 573.653)" class="st32" width="6.3" height="6.3"/>
							</g>
							<g>
								
									<rect x="109.7" y="273.7" transform="matrix(0.7071 0.7071 -0.7071 0.7071 228.772 1.2707)" class="st32" width="6.3" height="6.3"/>
							</g>
							<g>
								<polygon class="st30" points="104,281.2 104,272.4 108.4,276.8 								"/>
							</g>
							<g>
								<polygon class="st32" points="104,290.1 104,281.2 108.4,285.6 								"/>
							</g>
							<g>
								
									<rect x="105.3" y="278.1" transform="matrix(0.7071 -0.7071 0.7071 0.7071 -167.0824 159.0226)" class="st33" width="6.3" height="6.3"/>
							</g>
							<g>
								
									<rect x="109.7" y="282.5" transform="matrix(0.7074 0.7068 -0.7068 0.7074 234.9025 3.8077)" class="st30" width="6.3" height="6.3"/>
							</g>
							<g>
								
									<rect x="105.3" y="286.9" transform="matrix(0.7071 -0.7071 0.7071 0.7071 -173.3425 161.6258)" class="st31" width="6.3" height="6.3"/>
							</g>
							<g>
								
									<rect x="114.1" y="286.9" transform="matrix(0.707 -0.7072 0.7072 0.707 -170.7652 167.9138)" class="st33" width="6.3" height="6.3"/>
							</g>
							<g>
								
									<rect x="136.3" y="273.7" transform="matrix(-0.7073 -0.707 0.707 -0.7073 42.3022 571.092)" class="st30" width="6.3" height="6.3"/>
							</g>
							<g>
								
									<rect x="131.8" y="278.1" transform="matrix(-0.707 0.7072 -0.7072 -0.707 429.2614 384.5902)" class="st31" width="6.3" height="6.3"/>
							</g>
							<g>
								
									<rect x="136.3" y="282.5" transform="matrix(-0.707 -0.7072 0.7072 -0.707 35.9299 586.1527)" class="st32" width="6.3" height="6.3"/>
							</g>
							<g>
								
									<rect x="123" y="269.2" transform="matrix(-0.707 0.7073 -0.7073 -0.707 407.9143 375.7173)" class="st31" width="6.3" height="6.3"/>
							</g>
							<g>
								
									<rect x="127.4" y="273.7" transform="matrix(0.7069 0.7073 -0.7073 0.7069 234.0191 -11.2163)" class="st32" width="6.3" height="6.3"/>
							</g>
							<g>
								
									<rect x="131.8" y="269.2" transform="matrix(-0.707 0.7072 -0.7072 -0.707 423.0158 369.4609)" class="st33" width="6.3" height="6.3"/>
							</g>
							<g>
								
									<rect x="118.6" y="273.7" transform="matrix(0.707 0.7072 -0.7072 0.707 231.3947 -4.9717)" class="st30" width="6.3" height="6.3"/>
							</g>
							<g>
								
									<rect x="123" y="278.1" transform="matrix(0.707 -0.7072 0.7072 0.707 -161.9256 171.5979)" class="st33" width="6.3" height="6.3"/>
							</g>
							<g>
								
									<rect x="127.4" y="282.5" transform="matrix(-0.7071 -0.7071 0.7071 -0.7071 20.8645 579.9092)" class="st30" width="6.3" height="6.3"/>
							</g>
							<g>
								
									<rect x="123" y="286.9" transform="matrix(0.7069 -0.7073 0.7073 0.7069 -168.1866 174.203)" class="st31" width="6.3" height="6.3"/>
							</g>
							<g>
								
									<rect x="131.8" y="286.9" transform="matrix(0.707 -0.7072 0.7072 0.707 -165.5818 180.4272)" class="st33" width="6.3" height="6.3"/>
							</g>
							<g>
								<polygon class="st30" points="157.1,272.4 157.1,281.2 152.7,276.8 								"/>
							</g>
							<g>
								
									<rect x="149.5" y="278.1" transform="matrix(-0.7069 0.7073 -0.7073 -0.7069 459.4771 372.0385)" class="st31" width="6.3" height="6.3"/>
							</g>
							<g>
								<polygon class="st32" points="157.1,281.2 157.1,290.1 152.7,285.6 								"/>
							</g>
							<g>
								
									<rect x="140.7" y="269.2" transform="matrix(-0.7069 0.7073 -0.7073 -0.7069 438.1292 363.1664)" class="st31" width="6.3" height="6.3"/>
							</g>
							<g>
								
									<rect x="145.1" y="273.7" transform="matrix(-0.7073 -0.707 0.707 -0.7073 57.4058 577.3463)" class="st32" width="6.3" height="6.3"/>
							</g>
							<g>
								
									<rect x="149.5" y="269.2" transform="matrix(-0.7069 0.7073 -0.7073 -0.7069 453.2294 356.9088)" class="st33" width="6.3" height="6.3"/>
							</g>
							<g>
								
									<rect x="140.7" y="278.1" transform="matrix(-0.7069 0.7073 -0.7073 -0.7069 444.3763 378.2954)" class="st33" width="6.3" height="6.3"/>
							</g>
							<g>
								
									<rect x="145.1" y="282.5" transform="matrix(-0.707 -0.7072 0.7072 -0.707 51.031 592.4094)" class="st30" width="6.3" height="6.3"/>
							</g>
							<g>
								<polygon class="st30" points="157.1,290.1 157.1,298.9 152.7,294.5 								"/>
							</g>
							<g>
								
									<rect x="149.5" y="295.8" transform="matrix(-0.7072 0.707 -0.707 -0.7072 471.95 402.3596)" class="st31" width="6.3" height="6.3"/>
							</g>
							<g>
								<polygon class="st32" points="157.1,298.9 157.1,307.8 152.7,303.3 								"/>
							</g>
							<g>
								
									<rect x="140.7" y="286.9" transform="matrix(-0.7073 0.707 -0.707 -0.7073 450.5867 393.5291)" class="st31" width="6.3" height="6.3"/>
							</g>
							<g>
								
									<rect x="145.1" y="291.4" transform="matrix(-0.7069 -0.7073 0.7073 -0.7069 44.7609 607.5042)" class="st32" width="6.3" height="6.3"/>
							</g>
							<g>
								
									<rect x="149.5" y="286.9" transform="matrix(-0.7073 0.707 -0.707 -0.7073 465.6902 387.275)" class="st33" width="6.3" height="6.3"/>
							</g>
							<g>
								
									<rect x="140.7" y="295.8" transform="matrix(0.7071 -0.7071 0.7071 0.7071 -169.2318 189.2358)" class="st33" width="6.3" height="6.3"/>
							</g>
							<g>
								
									<rect x="145.1" y="300.2" transform="matrix(-0.707 -0.7072 0.7072 -0.707 38.5388 622.6203)" class="st30" width="6.3" height="6.3"/>
							</g>
							<g>
								<polygon class="st31" points="148.2,307.8 139.4,307.8 143.8,303.3 								"/>
							</g>
							<g>
								<polygon class="st33" points="157.1,307.8 148.2,307.8 152.7,303.3 								"/>
							</g>
							<g>
								
									<rect x="136.3" y="291.4" transform="matrix(-0.7069 -0.7073 0.7073 -0.7069 29.66 601.2473)" class="st30" width="6.3" height="6.3"/>
							</g>
							<g>
								
									<rect x="131.8" y="295.8" transform="matrix(0.7071 -0.7071 0.7071 0.7071 -171.8246 182.9843)" class="st31" width="6.3" height="6.3"/>
							</g>
							<g>
								
									<rect x="136.3" y="300.2" transform="matrix(-0.707 -0.7072 0.7072 -0.707 23.4372 616.364)" class="st32" width="6.3" height="6.3"/>
							</g>
							<g>
								
									<rect x="127.4" y="291.4" transform="matrix(-0.707 -0.7072 0.7072 -0.707 14.5957 595.0043)" class="st32" width="6.3" height="6.3"/>
							</g>
							<g>
								
									<rect x="123" y="295.8" transform="matrix(0.707 -0.7072 0.7072 0.707 -174.4294 176.7615)" class="st33" width="6.3" height="6.3"/>
							</g>
							<g>
								
									<rect x="127.4" y="300.2" transform="matrix(-0.7071 -0.7071 0.7071 -0.7071 8.373 610.1226)" class="st30" width="6.3" height="6.3"/>
							</g>
							<g>
								<polygon class="st31" points="130.5,307.8 121.7,307.8 126.1,303.3 								"/>
							</g>
							<g>
								<polygon class="st33" points="139.4,307.8 130.5,307.8 135,303.3 								"/>
							</g>
							<g>
								
									<rect x="118.6" y="291.4" transform="matrix(-0.707 -0.7072 0.7072 -0.707 -0.5068 588.7478)" class="st30" width="6.3" height="6.3"/>
							</g>
							<g>
								
									<rect x="114.1" y="295.8" transform="matrix(0.7071 -0.7071 0.7071 0.7071 -177.0066 170.4723)" class="st31" width="6.3" height="6.3"/>
							</g>
							<g>
								
									<rect x="118.6" y="300.2" transform="matrix(-0.7071 -0.7071 0.7071 -0.7071 -6.7302 603.8668)" class="st32" width="6.3" height="6.3"/>
							</g>
							<g>
								
									<rect x="109.7" y="291.4" transform="matrix(-0.7069 -0.7073 0.7073 -0.7069 -15.6718 582.4633)" class="st32" width="6.3" height="6.3"/>
							</g>
							<g>
								<polygon class="st30" points="104,298.9 104,290.1 108.4,294.5 								"/>
							</g>
							<g>
								<polygon class="st32" points="108.4,303.3 104,307.8 104,298.9 								"/>
							</g>
							<g>
								
									<rect x="105.3" y="295.8" transform="matrix(0.7072 -0.707 0.707 0.7072 -179.5825 164.1842)" class="st33" width="6.3" height="6.3"/>
							</g>
							<g>
								
									<rect x="109.7" y="300.2" transform="matrix(-0.707 -0.7073 0.7073 -0.707 -21.8974 597.5815)" class="st30" width="6.3" height="6.3"/>
							</g>
							<g>
								<polygon class="st31" points="112.9,307.8 104,307.8 108.4,303.3 								"/>
							</g>
							<g>
								<polygon class="st33" points="121.7,307.8 112.9,307.8 117.3,303.3 								"/>
							</g>
						</g>
						<g>
							<g>
								<polygon class="st30" points="104,254.7 104,263.5 99.6,259.1 								"/>
							</g>
							<g>
								
									<rect x="96.5" y="260.4" transform="matrix(-0.707 0.7072 -0.7072 -0.707 356.3382 379.4096)" class="st31" width="6.3" height="6.3"/>
							</g>
							<g>
								<polygon class="st32" points="104,263.5 104,272.4 99.6,267.9 								"/>
							</g>
							<g>
								<polygon class="st31" points="86.3,254.7 95.2,254.7 90.7,259.1 								"/>
							</g>
							<g>
								
									<rect x="92" y="256" transform="matrix(0.707 0.7073 -0.7073 0.707 211.1307 8.6269)" class="st32" width="6.3" height="6.3"/>
							</g>
							<g>
								<polygon class="st33" points="95.2,254.7 104,254.7 99.6,259.1 								"/>
							</g>
							<g>
								
									<rect x="83.2" y="256" transform="matrix(0.707 0.7072 -0.7072 0.707 208.5106 14.87)" class="st30" width="6.3" height="6.3"/>
							</g>
							<g>
								
									<rect x="83.2" y="264.8" transform="matrix(0.7069 0.7073 -0.7073 0.7069 214.8211 17.4896)" class="st32" width="6.3" height="6.3"/>
							</g>
							<g>
								
									<rect x="87.6" y="260.4" transform="matrix(-0.7072 0.707 -0.707 -0.7072 341.2091 385.7225)" class="st33" width="6.3" height="6.3"/>
							</g>
							<g>
								
									<rect x="92" y="264.8" transform="matrix(-0.7071 -0.7071 0.7071 -0.7071 -27.0115 524.6936)" class="st30" width="6.3" height="6.3"/>
							</g>
							<g>
								
									<rect x="78.8" y="260.4" transform="matrix(-0.7072 0.707 -0.707 -0.7072 326.1053 391.9777)" class="st31" width="6.3" height="6.3"/>
							</g>
							<g>
								<polygon class="st31" points="68.6,254.7 77.5,254.7 73,259.1 								"/>
							</g>
							<g>
								
									<rect x="74.3" y="256" transform="matrix(0.707 0.7072 -0.7072 0.707 205.9212 21.1284)" class="st32" width="6.3" height="6.3"/>
							</g>
							<g>
								<polygon class="st33" points="77.5,254.7 86.3,254.7 81.9,259.1 								"/>
							</g>
							<g>
								
									<rect x="65.5" y="256" transform="matrix(0.7071 0.7071 -0.7071 0.7071 203.3035 27.3687)" class="st30" width="6.3" height="6.3"/>
							</g>
							<g>
								
									<rect x="65.5" y="264.8" transform="matrix(0.707 0.7073 -0.7073 0.707 209.6106 29.9903)" class="st32" width="6.3" height="6.3"/>
							</g>
							<g>
								
									<rect x="69.9" y="260.4" transform="matrix(-0.707 0.7072 -0.7072 -0.707 311.0312 398.1815)" class="st33" width="6.3" height="6.3"/>
							</g>
							<g>
								
									<rect x="74.3" y="264.8" transform="matrix(0.7069 0.7073 -0.7073 0.7069 212.2304 23.7493)" class="st30" width="6.3" height="6.3"/>
							</g>
							<g>
								
									<rect x="61.1" y="260.4" transform="matrix(-0.7071 0.7071 -0.7071 -0.7071 295.9153 404.4612)" class="st31" width="6.3" height="6.3"/>
							</g>
							<g>
								<polygon class="st31" points="50.9,254.7 59.8,254.7 55.3,259.1 								"/>
							</g>
							<g>
								
									<rect x="56.6" y="256" transform="matrix(0.707 0.7072 -0.7072 0.707 200.735 33.6392)" class="st32" width="6.3" height="6.3"/>
							</g>
							<g>
								<polygon class="st33" points="59.8,254.7 68.6,254.7 64.2,259.1 								"/>
							</g>
							<g>
								<polygon class="st30" points="50.9,263.5 50.9,254.7 55.3,259.1 								"/>
							</g>
							<g>
								<polygon class="st32" points="50.9,272.4 50.9,263.5 55.3,267.9 								"/>
							</g>
							<g>
								
									<rect x="52.2" y="260.4" transform="matrix(0.7071 -0.7071 0.7071 0.7071 -170.1163 116.3035)" class="st33" width="6.3" height="6.3"/>
							</g>
							<g>
								
									<rect x="56.6" y="264.8" transform="matrix(0.7069 0.7073 -0.7073 0.7069 207.0414 36.2628)" class="st30" width="6.3" height="6.3"/>
							</g>
							<g>
								
									<rect x="52.2" y="269.2" transform="matrix(0.7073 -0.7069 0.7069 0.7073 -176.3464 118.8554)" class="st31" width="6.3" height="6.3"/>
							</g>
							<g>
								
									<rect x="61.1" y="269.2" transform="matrix(0.7073 -0.7069 0.7069 0.7073 -173.7416 125.0857)" class="st33" width="6.3" height="6.3"/>
							</g>
							<g>
								
									<rect x="61.1" y="278.1" transform="matrix(0.7071 -0.7072 0.7072 0.7071 -180.0551 127.7711)" class="st31" width="6.3" height="6.3"/>
							</g>
							<g>
								
									<rect x="65.5" y="282.5" transform="matrix(-0.707 -0.7072 0.7072 -0.707 -84.8828 536.0982)" class="st32" width="6.3" height="6.3"/>
							</g>
							<g>
								
									<rect x="56.6" y="273.7" transform="matrix(0.707 0.7073 -0.7073 0.707 213.2749 38.8404)" class="st32" width="6.3" height="6.3"/>
							</g>
							<g>
								<polygon class="st30" points="50.9,281.2 50.9,272.4 55.3,276.8 								"/>
							</g>
							<g>
								<polygon class="st32" points="50.9,290.1 50.9,281.2 55.3,285.6 								"/>
							</g>
							<g>
								
									<rect x="52.2" y="278.1" transform="matrix(0.707 -0.7072 0.7072 0.707 -182.6631 121.539)" class="st33" width="6.3" height="6.3"/>
							</g>
							<g>
								
									<rect x="56.6" y="282.5" transform="matrix(0.7073 0.7069 -0.7069 0.7073 219.4233 41.3621)" class="st30" width="6.3" height="6.3"/>
							</g>
							<g>
								
									<rect x="52.2" y="286.9" transform="matrix(0.707 -0.7073 0.7073 0.707 -188.9262 124.1418)" class="st31" width="6.3" height="6.3"/>
							</g>
							<g>
								
									<rect x="61.1" y="286.9" transform="matrix(0.707 -0.7072 0.7072 0.707 -186.3174 130.3736)" class="st33" width="6.3" height="6.3"/>
							</g>
							<g>
								
									<rect x="83.2" y="273.7" transform="matrix(-0.7074 -0.7068 0.7068 -0.7074 -48.2679 533.5945)" class="st30" width="6.3" height="6.3"/>
							</g>
							<g>
								
									<rect x="78.8" y="278.1" transform="matrix(-0.7071 0.7071 -0.7071 -0.7071 338.6312 422.1553)" class="st31" width="6.3" height="6.3"/>
							</g>
							<g>
								
									<rect x="83.2" y="282.5" transform="matrix(-0.7071 -0.7071 0.7071 -0.7071 -54.6239 548.6417)" class="st32" width="6.3" height="6.3"/>
							</g>
							<g>
								
									<rect x="69.9" y="269.2" transform="matrix(-0.7069 0.7073 -0.7073 -0.7069 317.3186 413.233)" class="st31" width="6.3" height="6.3"/>
							</g>
							<g>
								
									<rect x="74.3" y="273.7" transform="matrix(0.7069 0.7073 -0.7073 0.7069 218.4627 26.3282)" class="st32" width="6.3" height="6.3"/>
							</g>
							<g>
								
									<rect x="78.8" y="269.2" transform="matrix(-0.707 0.7072 -0.7072 -0.707 332.39 407.0293)" class="st33" width="6.3" height="6.3"/>
							</g>
							<g>
								
									<rect x="65.5" y="273.7" transform="matrix(0.707 0.7072 -0.7072 0.707 215.8428 32.5679)" class="st30" width="6.3" height="6.3"/>
							</g>
							<g>
								
									<rect x="69.9" y="278.1" transform="matrix(0.707 -0.7072 0.7072 0.707 -177.4802 134.0554)" class="st33" width="6.3" height="6.3"/>
							</g>
							<g>
								
									<rect x="74.3" y="282.5" transform="matrix(-0.7071 -0.7071 0.7071 -0.7071 -69.7282 542.3857)" class="st30" width="6.3" height="6.3"/>
							</g>
							<g>
								
									<rect x="69.9" y="286.9" transform="matrix(0.7069 -0.7073 0.7073 0.7069 -183.7429 136.6588)" class="st31" width="6.3" height="6.3"/>
							</g>
							<g>
								
									<rect x="78.8" y="286.9" transform="matrix(0.707 -0.7073 0.7073 0.707 -181.1486 142.9128)" class="st33" width="6.3" height="6.3"/>
							</g>
							<g>
								<polygon class="st30" points="104,272.4 104,281.2 99.6,276.8 								"/>
							</g>
							<g>
								
									<rect x="96.5" y="278.1" transform="matrix(-0.7069 0.7073 -0.7073 -0.7069 368.8656 409.583)" class="st31" width="6.3" height="6.3"/>
							</g>
							<g>
								<polygon class="st32" points="104,281.2 104,290.1 99.6,285.6 								"/>
							</g>
							<g>
								
									<rect x="87.6" y="269.2" transform="matrix(-0.707 0.7072 -0.7072 -0.707 347.4925 400.7728)" class="st31" width="6.3" height="6.3"/>
							</g>
							<g>
								
									<rect x="92" y="273.7" transform="matrix(-0.7073 -0.707 0.707 -0.7073 -33.2223 539.8183)" class="st32" width="6.3" height="6.3"/>
							</g>
							<g>
								
									<rect x="96.4" y="269.2" transform="matrix(-0.7069 0.7073 -0.7073 -0.7069 362.6217 394.4571)" class="st33" width="6.3" height="6.3"/>
							</g>
							<g>
								
									<rect x="87.6" y="278.1" transform="matrix(-0.7071 0.7071 -0.7071 -0.7071 353.7343 415.8994)" class="st33" width="6.3" height="6.3"/>
							</g>
							<g>
								
									<rect x="92" y="282.5" transform="matrix(-0.707 -0.7072 0.7072 -0.707 -39.5822 554.8666)" class="st30" width="6.3" height="6.3"/>
							</g>
							<g>
								<polygon class="st30" points="104,290.1 104,298.9 99.6,294.5 								"/>
							</g>
							<g>
								
									<rect x="96.5" y="295.8" transform="matrix(-0.7072 0.707 -0.707 -0.7072 381.324 439.8897)" class="st31" width="6.3" height="6.3"/>
							</g>
							<g>
								<polygon class="st32" points="104,298.9 104,307.8 99.6,303.3 								"/>
							</g>
							<g>
								
									<rect x="87.6" y="286.9" transform="matrix(-0.7074 0.7068 -0.7068 -0.7074 359.9267 431.118)" class="st31" width="6.3" height="6.3"/>
							</g>
							<g>
								
									<rect x="92" y="291.4" transform="matrix(-0.7069 -0.7073 0.7073 -0.7069 -45.8507 569.9597)" class="st32" width="6.3" height="6.3"/>
							</g>
							<g>
								
									<rect x="96.5" y="286.9" transform="matrix(-0.7073 0.707 -0.707 -0.7073 375.0622 424.8029)" class="st33" width="6.3" height="6.3"/>
							</g>
							<g>
								
									<rect x="87.6" y="295.8" transform="matrix(0.707 -0.7073 0.7073 0.707 -184.8126 151.7624)" class="st33" width="6.3" height="6.3"/>
							</g>
							<g>
								<polygon class="st30" points="95.2,298.9 99.6,303.3 95.2,307.8 90.7,303.3 								"/>
							</g>
							<g>
								<polygon class="st31" points="95.2,307.8 86.3,307.8 90.7,303.3 								"/>
							</g>
							<g>
								<polygon class="st33" points="104,307.8 95.2,307.8 99.6,303.3 								"/>
							</g>
							<g>
								
									<rect x="83.2" y="291.4" transform="matrix(-0.7071 -0.7071 0.7071 -0.7071 -60.8907 563.736)" class="st30" width="6.3" height="6.3"/>
							</g>
							<g>
								
									<rect x="78.8" y="295.8" transform="matrix(0.707 -0.7072 0.7072 0.707 -187.3879 145.4747)" class="st31" width="6.3" height="6.3"/>
							</g>
							<g>
								
									<rect x="83.2" y="300.2" transform="matrix(-0.7072 -0.707 0.707 -0.7072 -67.1163 578.8584)" class="st32" width="6.3" height="6.3"/>
							</g>
							<g>
								
									<rect x="74.3" y="291.4" transform="matrix(-0.7071 -0.7071 0.7071 -0.7071 -75.9947 557.4797)" class="st32" width="6.3" height="6.3"/>
							</g>
							<g>
								
									<rect x="69.9" y="295.8" transform="matrix(0.707 -0.7072 0.7072 0.707 -189.9814 139.2215)" class="st33" width="6.3" height="6.3"/>
							</g>
							<g>
								
									<rect x="74.3" y="300.2" transform="matrix(-0.7072 -0.707 0.707 -0.7072 -82.221 572.6028)" class="st30" width="6.3" height="6.3"/>
							</g>
							<g>
								<polygon class="st31" points="77.5,307.8 68.6,307.8 73,303.3 								"/>
							</g>
							<g>
								<polygon class="st33" points="86.3,307.8 77.5,307.8 81.9,303.3 								"/>
							</g>
							<g>
								
									<rect x="65.5" y="291.4" transform="matrix(-0.707 -0.7073 0.7073 -0.707 -91.1504 551.1906)" class="st30" width="6.3" height="6.3"/>
							</g>
							<g>
								
									<rect x="61.1" y="295.8" transform="matrix(0.7071 -0.7071 0.7071 0.7071 -192.5545 132.9363)" class="st31" width="6.3" height="6.3"/>
							</g>
							<g>
								
									<rect x="65.5" y="300.2" transform="matrix(-0.707 -0.7072 0.7072 -0.707 -97.3787 566.313)" class="st32" width="6.3" height="6.3"/>
							</g>
							<g>
								
									<rect x="56.6" y="291.4" transform="matrix(-0.707 -0.7072 0.7072 -0.707 -106.2273 544.95)" class="st32" width="6.3" height="6.3"/>
							</g>
							<g>
								<polygon class="st30" points="50.9,298.9 50.9,290.1 55.3,294.5 								"/>
							</g>
							<g>
								<polygon class="st32" points="55.3,303.3 50.9,307.8 50.9,298.9 								"/>
							</g>
							<g>
								
									<rect x="52.2" y="295.8" transform="matrix(0.707 -0.7072 0.7072 0.707 -195.1633 126.7059)" class="st33" width="6.3" height="6.3"/>
							</g>
							<g>
								
									<rect x="56.6" y="300.2" transform="matrix(-0.7071 -0.7071 0.7071 -0.7071 -112.4557 560.0737)" class="st30" width="6.3" height="6.3"/>
							</g>
							<g>
								<polygon class="st31" points="59.8,307.8 50.9,307.8 55.3,303.3 								"/>
							</g>
							<g>
								<polygon class="st33" points="68.6,307.8 59.8,307.8 64.2,303.3 								"/>
							</g>
						</g>
					</g>
					<g>
						<g>
							<g>
								<polygon class="st30" points="157.1,307.7 157.1,316.5 152.7,312.1 								"/>
							</g>
							<g>
								
									<rect x="149.5" y="313.4" transform="matrix(-0.7069 0.7073 -0.7073 -0.7069 484.4524 432.315)" class="st31" width="6.3" height="6.3"/>
							</g>
							<g>
								<polygon class="st32" points="157.1,316.5 157.1,325.4 152.7,320.9 								"/>
							</g>
							<g>
								<polygon class="st31" points="139.4,307.7 148.2,307.7 143.8,312.1 								"/>
							</g>
							<g>
								
									<rect x="145.1" y="309" transform="matrix(0.707 0.7072 -0.7072 0.707 264.1389 -13.3971)" class="st32" width="6.3" height="6.3"/>
							</g>
							<g>
								<polygon class="st33" points="148.2,307.7 157.1,307.7 152.7,312.1 								"/>
							</g>
							<g>
								
									<rect x="136.3" y="309" transform="matrix(0.707 0.7072 -0.7072 0.707 261.5516 -7.1392)" class="st30" width="6.3" height="6.3"/>
							</g>
							<g>
								
									<rect x="136.3" y="317.8" transform="matrix(0.7069 0.7073 -0.7073 0.7069 267.8452 -4.5326)" class="st32" width="6.3" height="6.3"/>
							</g>
							<g>
								
									<rect x="140.7" y="313.4" transform="matrix(-0.7069 0.7073 -0.7073 -0.7069 469.3517 438.572)" class="st33" width="6.3" height="6.3"/>
							</g>
							<g>
								
									<rect x="145.1" y="317.8" transform="matrix(-0.7072 -0.707 0.707 -0.7072 26.1497 652.7236)" class="st30" width="6.3" height="6.3"/>
							</g>
							<g>
								
									<rect x="131.8" y="313.4" transform="matrix(-0.707 0.7072 -0.7072 -0.707 454.2336 444.8699)" class="st31" width="6.3" height="6.3"/>
							</g>
							<g>
								<polygon class="st31" points="121.7,307.7 130.5,307.7 126.1,312.1 								"/>
							</g>
							<g>
								
									<rect x="127.4" y="309" transform="matrix(0.7069 0.7073 -0.7073 0.7069 258.994 -0.8681)" class="st32" width="6.3" height="6.3"/>
							</g>
							<g>
								<polygon class="st33" points="130.5,307.7 139.4,307.7 135,312.1 								"/>
							</g>
							<g>
								
									<rect x="118.6" y="309" transform="matrix(0.707 0.7072 -0.7072 0.707 256.3668 5.3737)" class="st30" width="6.3" height="6.3"/>
							</g>
							<g>
								
									<rect x="118.6" y="317.8" transform="matrix(0.7069 0.7073 -0.7073 0.7069 262.6589 7.9817)" class="st32" width="6.3" height="6.3"/>
							</g>
							<g>
								
									<rect x="123" y="313.4" transform="matrix(-0.707 0.7072 -0.7072 -0.707 439.1315 451.1255)" class="st33" width="6.3" height="6.3"/>
							</g>
							<g>
								
									<rect x="127.4" y="317.8" transform="matrix(0.7069 0.7073 -0.7073 0.7069 265.2875 1.7399)" class="st30" width="6.3" height="6.3"/>
							</g>
							<g>
								
									<rect x="114.1" y="313.4" transform="matrix(-0.7069 0.7073 -0.7073 -0.7069 424.0626 457.312)" class="st31" width="6.3" height="6.3"/>
							</g>
							<g>
								<polygon class="st31" points="104,307.7 112.9,307.7 108.4,312.1 								"/>
							</g>
							<g>
								
									<rect x="109.7" y="309" transform="matrix(0.7071 0.7071 -0.7071 0.7071 253.7412 11.6133)" class="st32" width="6.3" height="6.3"/>
							</g>
							<g>
								<polygon class="st33" points="112.9,307.7 121.7,307.7 117.3,312.1 								"/>
							</g>
							<g>
								<polygon class="st30" points="104,316.5 104,307.7 108.4,312.1 								"/>
							</g>
							<g>
								<polygon class="st32" points="104,325.4 104,316.5 108.4,320.9 								"/>
							</g>
							<g>
								
									<rect x="105.3" y="313.4" transform="matrix(0.7073 -0.7069 0.7069 0.7073 -192.0094 169.2793)" class="st33" width="6.3" height="6.3"/>
							</g>
							<g>
								
									<rect x="109.7" y="317.8" transform="matrix(0.707 0.7072 -0.7072 0.707 260.032 14.2213)" class="st30" width="6.3" height="6.3"/>
							</g>
							<g>
								
									<rect x="105.3" y="322.2" transform="matrix(0.7073 -0.707 0.707 0.7073 -198.2809 171.9034)" class="st31" width="6.3" height="6.3"/>
							</g>
							<g>
								
									<rect x="114.1" y="322.2" transform="matrix(0.7072 -0.707 0.707 0.7072 -195.7078 178.1929)" class="st33" width="6.3" height="6.3"/>
							</g>
							<g>
								
									<rect x="114.1" y="331.1" transform="matrix(0.707 -0.7072 0.7072 0.707 -201.9939 180.8513)" class="st31" width="6.3" height="6.3"/>
							</g>
							<g>
								
									<rect x="118.6" y="335.5" transform="matrix(-0.707 -0.7072 0.7072 -0.707 -31.7352 664.1289)" class="st32" width="6.3" height="6.3"/>
							</g>
							<g>
								
									<rect x="109.7" y="326.7" transform="matrix(0.7074 0.7068 -0.7068 0.7074 266.1285 16.7349)" class="st32" width="6.3" height="6.3"/>
							</g>
							<g>
								<polygon class="st30" points="104,334.2 104,325.4 108.4,329.8 								"/>
							</g>
							<g>
								<polygon class="st32" points="104,343.1 104,334.2 108.4,338.6 								"/>
							</g>
							<g>
								
									<rect x="105.3" y="331.1" transform="matrix(0.7071 -0.7071 0.7071 0.7071 -204.5677 174.5597)" class="st33" width="6.3" height="6.3"/>
							</g>
							<g>
								
									<rect x="109.7" y="335.5" transform="matrix(0.7074 0.7068 -0.7068 0.7074 272.3841 19.3249)" class="st30" width="6.3" height="6.3"/>
							</g>
							<g>
								
									<rect x="105.3" y="339.9" transform="matrix(0.7071 -0.7071 0.7071 0.7071 -210.8229 177.1507)" class="st31" width="6.3" height="6.3"/>
							</g>
							<g>
								
									<rect x="114.1" y="339.9" transform="matrix(0.707 -0.7072 0.7072 0.707 -208.2498 183.443)" class="st33" width="6.3" height="6.3"/>
							</g>
							<g>
								
									<rect x="136.3" y="326.7" transform="matrix(-0.7071 -0.7071 0.7071 -0.7071 4.7549 661.5551)" class="st30" width="6.3" height="6.3"/>
							</g>
							<g>
								
									<rect x="131.8" y="331.1" transform="matrix(-0.7073 0.7069 -0.7069 -0.7073 466.6892 475.2019)" class="st31" width="6.3" height="6.3"/>
							</g>
							<g>
								
									<rect x="136.3" y="335.5" transform="matrix(-0.7069 -0.7073 0.7073 -0.7069 -1.5723 676.6245)" class="st32" width="6.3" height="6.3"/>
							</g>
							<g>
								
									<rect x="123" y="322.2" transform="matrix(-0.707 0.7073 -0.7073 -0.707 445.4043 466.1928)" class="st31" width="6.3" height="6.3"/>
							</g>
							<g>
								
									<rect x="127.4" y="326.7" transform="matrix(0.7072 0.707 -0.707 0.7072 271.3791 4.2613)" class="st32" width="6.3" height="6.3"/>
							</g>
							<g>
								
									<rect x="131.8" y="322.2" transform="matrix(-0.707 0.7073 -0.7073 -0.707 460.5057 459.9365)" class="st33" width="6.3" height="6.3"/>
							</g>
							<g>
								
									<rect x="118.6" y="326.7" transform="matrix(0.7073 0.7069 -0.7069 0.7073 268.7529 10.4992)" class="st30" width="6.3" height="6.3"/>
							</g>
							<g>
								
									<rect x="123" y="331.1" transform="matrix(0.7069 -0.7073 0.7073 0.7069 -199.4188 187.144)" class="st33" width="6.3" height="6.3"/>
							</g>
							<g>
								
									<rect x="127.4" y="335.5" transform="matrix(-0.707 -0.7072 0.7072 -0.707 -16.6326 670.3856)" class="st30" width="6.3" height="6.3"/>
							</g>
							<g>
								
									<rect x="123" y="339.9" transform="matrix(0.7069 -0.7073 0.7073 0.7069 -205.6755 189.7364)" class="st31" width="6.3" height="6.3"/>
							</g>
							<g>
								
									<rect x="131.8" y="339.9" transform="matrix(0.707 -0.7072 0.7072 0.707 -203.0665 195.9565)" class="st33" width="6.3" height="6.3"/>
							</g>
							<g>
								<polygon class="st30" points="157.1,325.4 157.1,334.2 152.7,329.8 								"/>
							</g>
							<g>
								
									<rect x="149.5" y="331.1" transform="matrix(-0.7072 0.707 -0.707 -0.7072 496.9145 462.6504)" class="st31" width="6.3" height="6.3"/>
							</g>
							<g>
								<polygon class="st32" points="157.1,334.2 157.1,343.1 152.7,338.6 								"/>
							</g>
							<g>
								
									<rect x="140.7" y="322.2" transform="matrix(-0.7069 0.7073 -0.7073 -0.7069 475.6238 453.6371)" class="st31" width="6.3" height="6.3"/>
							</g>
							<g>
								
									<rect x="145.1" y="326.7" transform="matrix(-0.7071 -0.7071 0.7071 -0.7071 19.8571 667.8108)" class="st32" width="6.3" height="6.3"/>
							</g>
							<g>
								
									<rect x="149.5" y="322.2" transform="matrix(-0.7069 0.7073 -0.7073 -0.7069 490.7239 447.3794)" class="st33" width="6.3" height="6.3"/>
							</g>
							<g>
								
									<rect x="140.7" y="331.1" transform="matrix(-0.7072 0.707 -0.707 -0.7072 481.8113 468.9048)" class="st33" width="6.3" height="6.3"/>
							</g>
							<g>
								
									<rect x="145.1" y="335.5" transform="matrix(-0.7069 -0.7073 0.7073 -0.7069 13.5286 682.8815)" class="st30" width="6.3" height="6.3"/>
							</g>
							<g>
								<polygon class="st30" points="157.1,343.1 157.1,351.9 152.7,347.5 								"/>
							</g>
							<g>
								
									<rect x="149.5" y="348.8" transform="matrix(-0.7071 0.7071 -0.7071 -0.7071 509.4494 492.7933)" class="st31" width="6.3" height="6.3"/>
							</g>
							<g>
								<polygon class="st32" points="157.1,351.9 157.1,360.8 152.7,356.3 								"/>
							</g>
							<g>
								
									<rect x="140.7" y="339.9" transform="matrix(-0.7072 0.707 -0.707 -0.7072 488.067 484.0034)" class="st31" width="6.3" height="6.3"/>
							</g>
							<g>
								
									<rect x="145.1" y="344.4" transform="matrix(-0.7069 -0.7073 0.7073 -0.7069 7.2714 697.9827)" class="st32" width="6.3" height="6.3"/>
							</g>
							<g>
								
									<rect x="149.5" y="339.9" transform="matrix(-0.7072 0.707 -0.707 -0.7072 503.1702 477.7489)" class="st33" width="6.3" height="6.3"/>
							</g>
							<g>
								
									<rect x="140.7" y="348.8" transform="matrix(0.707 -0.7072 0.7072 0.707 -206.7294 204.8003)" class="st33" width="6.3" height="6.3"/>
							</g>
							<g>
								
									<rect x="145.1" y="353.2" transform="matrix(-0.7069 -0.7073 0.7073 -0.7069 1.0145 713.0836)" class="st30" width="6.3" height="6.3"/>
							</g>
							<g>
								<polygon class="st31" points="148.2,360.8 139.4,360.8 143.8,356.3 								"/>
							</g>
							<g>
								<polygon class="st33" points="157.1,360.8 148.2,360.8 152.7,356.3 								"/>
							</g>
							<g>
								
									<rect x="136.3" y="344.4" transform="matrix(-0.7069 -0.7073 0.7073 -0.7069 -7.8294 691.7258)" class="st30" width="6.3" height="6.3"/>
							</g>
							<g>
								
									<rect x="131.8" y="348.8" transform="matrix(0.707 -0.7072 0.7072 0.707 -209.3235 198.5486)" class="st31" width="6.3" height="6.3"/>
							</g>
							<g>
								
									<rect x="136.3" y="353.2" transform="matrix(-0.7069 -0.7073 0.7073 -0.7069 -14.0864 706.8266)" class="st32" width="6.3" height="6.3"/>
							</g>
							<g>
								
									<rect x="127.4" y="344.4" transform="matrix(-0.707 -0.7072 0.7072 -0.707 -22.889 685.4876)" class="st32" width="6.3" height="6.3"/>
							</g>
							<g>
								
									<rect x="123" y="348.8" transform="matrix(0.7069 -0.7073 0.7073 0.7069 -211.9331 192.3292)" class="st33" width="6.3" height="6.3"/>
							</g>
							<g>
								
									<rect x="127.4" y="353.2" transform="matrix(-0.707 -0.7072 0.7072 -0.707 -29.1452 700.5892)" class="st30" width="6.3" height="6.3"/>
							</g>
							<g>
								<polygon class="st31" points="130.5,360.8 121.7,360.8 126.1,356.3 								"/>
							</g>
							<g>
								<polygon class="st33" points="139.4,360.8 130.5,360.8 135,356.3 								"/>
							</g>
							<g>
								
									<rect x="118.6" y="344.4" transform="matrix(-0.707 -0.7072 0.7072 -0.707 -37.9916 679.231)" class="st30" width="6.3" height="6.3"/>
							</g>
							<g>
								
									<rect x="114.1" y="348.8" transform="matrix(0.707 -0.7072 0.7072 0.707 -214.5068 186.0351)" class="st31" width="6.3" height="6.3"/>
							</g>
							<g>
								
									<rect x="118.6" y="353.2" transform="matrix(-0.707 -0.7072 0.7072 -0.707 -44.2478 694.3326)" class="st32" width="6.3" height="6.3"/>
							</g>
							<g>
								
									<rect x="109.7" y="344.4" transform="matrix(-0.7069 -0.7073 0.7073 -0.7069 -53.1651 672.9379)" class="st32" width="6.3" height="6.3"/>
							</g>
							<g>
								<polygon class="st30" points="104,351.9 104,343.1 108.4,347.5 								"/>
							</g>
							<g>
								<polygon class="st32" points="108.4,356.3 104,360.8 104,351.9 								"/>
							</g>
							<g>
								
									<rect x="105.3" y="348.8" transform="matrix(0.7071 -0.7071 0.7071 0.7071 -217.0792 179.7421)" class="st33" width="6.3" height="6.3"/>
							</g>
							<g>
								
									<rect x="109.7" y="353.2" transform="matrix(-0.7069 -0.7073 0.7073 -0.7069 -59.4227 688.0381)" class="st30" width="6.3" height="6.3"/>
							</g>
							<g>
								<polygon class="st31" points="112.9,360.8 104,360.8 108.4,356.3 								"/>
							</g>
							<g>
								<polygon class="st33" points="121.7,360.8 112.9,360.8 117.3,356.3 								"/>
							</g>
						</g>
						<g>
							<g>
								<polygon class="st30" points="104,307.7 104,316.5 99.6,312.1 								"/>
							</g>
							<g>
								
									<rect x="96.5" y="313.4" transform="matrix(-0.7069 0.7073 -0.7073 -0.7069 393.8409 469.8596)" class="st31" width="6.3" height="6.3"/>
							</g>
							<g>
								<polygon class="st32" points="104,316.5 104,325.4 99.6,320.9 								"/>
							</g>
							<g>
								<polygon class="st31" points="86.3,307.7 95.2,307.7 90.7,312.1 								"/>
							</g>
							<g>
								
									<rect x="92" y="309" transform="matrix(0.7069 0.7073 -0.7073 0.7069 248.6522 24.1774)" class="st32" width="6.3" height="6.3"/>
							</g>
							<g>
								<polygon class="st33" points="95.2,307.7 104,307.7 99.6,312.1 								"/>
							</g>
							<g>
								
									<rect x="83.2" y="309" transform="matrix(0.707 0.7073 -0.7073 0.707 246.0272 30.417)" class="st30" width="6.3" height="6.3"/>
							</g>
							<g>
								
									<rect x="83.2" y="317.8" transform="matrix(0.7069 0.7073 -0.7073 0.7069 252.3171 33.0284)" class="st32" width="6.3" height="6.3"/>
							</g>
							<g>
								
									<rect x="87.6" y="313.4" transform="matrix(-0.7071 0.7071 -0.7071 -0.7071 378.704 476.1816)" class="st33" width="6.3" height="6.3"/>
							</g>
							<g>
								
									<rect x="92" y="317.8" transform="matrix(-0.7072 -0.707 0.707 -0.7072 -64.4742 615.1914)" class="st30" width="6.3" height="6.3"/>
							</g>
							<g>
								
									<rect x="78.8" y="313.4" transform="matrix(-0.7071 0.7071 -0.7071 -0.7071 363.6009 482.4375)" class="st31" width="6.3" height="6.3"/>
							</g>
							<g>
								<polygon class="st31" points="68.6,307.7 77.5,307.7 73,312.1 								"/>
							</g>
							<g>
								
									<rect x="74.3" y="309" transform="matrix(0.7069 0.7073 -0.7073 0.7069 243.4375 36.6765)" class="st32" width="6.3" height="6.3"/>
							</g>
							<g>
								<polygon class="st33" points="77.5,307.7 86.3,307.7 81.9,312.1 								"/>
							</g>
							<g>
								
									<rect x="65.5" y="309" transform="matrix(0.707 0.7072 -0.7072 0.707 240.8149 42.9133)" class="st30" width="6.3" height="6.3"/>
							</g>
							<g>
								
									<rect x="65.5" y="317.8" transform="matrix(0.7069 0.7073 -0.7073 0.7069 247.1027 45.5255)" class="st32" width="6.3" height="6.3"/>
							</g>
							<g>
								
									<rect x="69.9" y="313.4" transform="matrix(-0.707 0.7073 -0.7073 -0.707 348.5356 488.6339)" class="st33" width="6.3" height="6.3"/>
							</g>
							<g>
								
									<rect x="74.3" y="317.8" transform="matrix(0.7069 0.7073 -0.7073 0.7069 249.7268 39.2887)" class="st30" width="6.3" height="6.3"/>
							</g>
							<g>
								
									<rect x="61.1" y="313.4" transform="matrix(-0.707 0.7072 -0.7072 -0.707 333.4166 494.9182)" class="st31" width="6.3" height="6.3"/>
							</g>
							<g>
								<polygon class="st31" points="50.9,307.7 59.8,307.7 55.3,312.1 								"/>
							</g>
							<g>
								
									<rect x="56.6" y="309" transform="matrix(0.707 0.7073 -0.7073 0.707 238.2495 49.1883)" class="st32" width="6.3" height="6.3"/>
							</g>
							<g>
								<polygon class="st33" points="59.8,307.7 68.6,307.7 64.2,312.1 								"/>
							</g>
							<g>
								<polygon class="st30" points="50.9,316.5 50.9,307.7 55.3,312.1 								"/>
							</g>
							<g>
								<polygon class="st32" points="50.9,325.4 50.9,316.5 55.3,320.9 								"/>
							</g>
							<g>
								
									<rect x="52.2" y="313.4" transform="matrix(0.7072 -0.707 0.707 0.7072 -207.5848 131.8117)" class="st33" width="6.3" height="6.3"/>
							</g>
							<g>
								
									<rect x="56.6" y="317.8" transform="matrix(0.7069 0.7073 -0.7073 0.7069 244.5373 51.8019)" class="st30" width="6.3" height="6.3"/>
							</g>
							<g>
								
									<rect x="52.2" y="322.2" transform="matrix(0.7071 -0.7071 0.7071 0.7071 -213.862 134.4329)" class="st31" width="6.3" height="6.3"/>
							</g>
							<g>
								
									<rect x="61.1" y="322.2" transform="matrix(0.7072 -0.707 0.707 0.7072 -211.2519 140.6607)" class="st33" width="6.3" height="6.3"/>
							</g>
							<g>
								
									<rect x="61.1" y="331.1" transform="matrix(0.707 -0.7072 0.7072 0.707 -217.5461 143.311)" class="st31" width="6.3" height="6.3"/>
							</g>
							<g>
								
									<rect x="65.5" y="335.5" transform="matrix(-0.707 -0.7073 0.7073 -0.707 -122.3823 626.5682)" class="st32" width="6.3" height="6.3"/>
							</g>
							<g>
								
									<rect x="56.6" y="326.7" transform="matrix(0.7072 0.707 -0.707 0.7072 250.6543 54.2977)" class="st32" width="6.3" height="6.3"/>
							</g>
							<g>
								<polygon class="st30" points="50.9,334.2 50.9,325.4 55.3,329.8 								"/>
							</g>
							<g>
								<polygon class="st32" points="50.9,343.1 50.9,334.2 55.3,338.6 								"/>
							</g>
							<g>
								
									<rect x="52.2" y="331.1" transform="matrix(0.707 -0.7073 0.7073 0.707 -220.1581 137.0824)" class="st33" width="6.3" height="6.3"/>
							</g>
							<g>
								
									<rect x="56.6" y="335.5" transform="matrix(0.7072 0.707 -0.707 0.7072 256.9108 56.8895)" class="st30" width="6.3" height="6.3"/>
							</g>
							<g>
								
									<rect x="52.2" y="339.9" transform="matrix(0.707 -0.7073 0.7073 0.707 -226.4147 139.6748)" class="st31" width="6.3" height="6.3"/>
							</g>
							<g>
								
									<rect x="61.1" y="339.9" transform="matrix(0.707 -0.7072 0.7072 0.707 -223.802 145.9027)" class="st33" width="6.3" height="6.3"/>
							</g>
							<g>
								
									<rect x="83.2" y="326.7" transform="matrix(-0.7073 -0.707 0.707 -0.7073 -85.7982 624.0576)" class="st30" width="6.3" height="6.3"/>
							</g>
							<g>
								
									<rect x="78.8" y="331.1" transform="matrix(-0.7074 0.7068 -0.7068 -0.7074 376.0403 512.7559)" class="st31" width="6.3" height="6.3"/>
							</g>
							<g>
								
									<rect x="83.2" y="335.5" transform="matrix(-0.7071 -0.7071 0.7071 -0.7071 -92.1159 639.1203)" class="st32" width="6.3" height="6.3"/>
							</g>
							<g>
								
									<rect x="69.9" y="322.2" transform="matrix(-0.7069 0.7073 -0.7073 -0.7069 354.8134 503.7047)" class="st31" width="6.3" height="6.3"/>
							</g>
							<g>
								
									<rect x="74.3" y="326.7" transform="matrix(0.7072 0.707 -0.707 0.7072 255.8375 41.791)" class="st32" width="6.3" height="6.3"/>
							</g>
							<g>
								
									<rect x="78.8" y="322.2" transform="matrix(-0.707 0.7072 -0.7072 -0.707 369.8766 497.509)" class="st33" width="6.3" height="6.3"/>
							</g>
							<g>
								
									<rect x="65.5" y="326.7" transform="matrix(0.7073 0.7069 -0.7069 0.7073 253.2159 48.0239)" class="st30" width="6.3" height="6.3"/>
							</g>
							<g>
								
									<rect x="69.9" y="331.1" transform="matrix(0.7069 -0.7073 0.7073 0.7069 -214.9751 149.5998)" class="st33" width="6.3" height="6.3"/>
							</g>
							<g>
								
									<rect x="74.3" y="335.5" transform="matrix(-0.7071 -0.7071 0.7071 -0.7071 -107.2199 632.864)" class="st30" width="6.3" height="6.3"/>
							</g>
							<g>
								
									<rect x="69.9" y="339.9" transform="matrix(0.7069 -0.7073 0.7073 0.7069 -221.2317 152.1922)" class="st31" width="6.3" height="6.3"/>
							</g>
							<g>
								
									<rect x="78.8" y="339.9" transform="matrix(0.707 -0.7073 0.7073 0.707 -218.6371 158.4458)" class="st33" width="6.3" height="6.3"/>
							</g>
							<g>
								<polygon class="st30" points="104,325.4 104,334.2 99.6,329.8 								"/>
							</g>
							<g>
								
									<rect x="96.5" y="331.1" transform="matrix(-0.7072 0.707 -0.707 -0.7072 406.2882 500.1801)" class="st31" width="6.3" height="6.3"/>
							</g>
							<g>
								<polygon class="st32" points="104,334.2 104,343.1 99.6,338.6 								"/>
							</g>
							<g>
								
									<rect x="87.6" y="322.2" transform="matrix(-0.707 0.7072 -0.7072 -0.707 384.979 491.2523)" class="st31" width="6.3" height="6.3"/>
							</g>
							<g>
								
									<rect x="92" y="326.7" transform="matrix(-0.7071 -0.7071 0.7071 -0.7071 -70.7625 630.2743)" class="st32" width="6.3" height="6.3"/>
							</g>
							<g>
								
									<rect x="96.4" y="322.2" transform="matrix(-0.7069 0.7073 -0.7073 -0.7069 400.1166 484.9282)" class="st33" width="6.3" height="6.3"/>
							</g>
							<g>
								
									<rect x="87.6" y="331.1" transform="matrix(-0.7074 0.7068 -0.7068 -0.7074 391.1459 506.5025)" class="st33" width="6.3" height="6.3"/>
							</g>
							<g>
								
									<rect x="92" y="335.5" transform="matrix(-0.7069 -0.7073 0.7073 -0.7069 -77.083 645.3369)" class="st30" width="6.3" height="6.3"/>
							</g>
							<g>
								<polygon class="st30" points="104,343.1 104,351.9 99.6,347.5 								"/>
							</g>
							<g>
								
									<rect x="96.5" y="348.8" transform="matrix(-0.7071 0.7071 -0.7071 -0.7071 418.8298 530.3298)" class="st31" width="6.3" height="6.3"/>
							</g>
							<g>
								<polygon class="st32" points="104,351.9 104,360.8 99.6,356.3 								"/>
							</g>
							<g>
								
									<rect x="87.6" y="339.9" transform="matrix(-0.7074 0.7068 -0.7068 -0.7074 397.4007 521.6029)" class="st31" width="6.3" height="6.3"/>
							</g>
							<g>
								
									<rect x="92" y="344.4" transform="matrix(-0.7069 -0.7073 0.7073 -0.7069 -83.3401 660.4382)" class="st32" width="6.3" height="6.3"/>
							</g>
							<g>
								
									<rect x="96.5" y="339.9" transform="matrix(-0.7072 0.707 -0.707 -0.7072 412.5443 515.279)" class="st33" width="6.3" height="6.3"/>
							</g>
							<g>
								
									<rect x="87.6" y="348.8" transform="matrix(0.7069 -0.7073 0.7073 0.7069 -222.323 167.3312)" class="st33" width="6.3" height="6.3"/>
							</g>
							<g>
								
									<rect x="92" y="353.2" transform="matrix(-0.7069 -0.7073 0.7073 -0.7069 -89.5971 675.5391)" class="st30" width="6.3" height="6.3"/>
							</g>
							<g>
								<polygon class="st31" points="95.2,360.8 86.3,360.8 90.7,356.3 								"/>
							</g>
							<g>
								<polygon class="st33" points="104,360.8 95.2,360.8 99.6,356.3 								"/>
							</g>
							<g>
								
									<rect x="83.2" y="344.4" transform="matrix(-0.7071 -0.7071 0.7071 -0.7071 -98.3716 654.223)" class="st30" width="6.3" height="6.3"/>
							</g>
							<g>
								
									<rect x="78.8" y="348.8" transform="matrix(0.707 -0.7073 0.7073 0.707 -224.8947 161.0386)" class="st31" width="6.3" height="6.3"/>
							</g>
							<g>
								
									<rect x="83.2" y="353.2" transform="matrix(-0.7071 -0.7071 0.7071 -0.7071 -104.6272 669.3253)" class="st32" width="6.3" height="6.3"/>
							</g>
							<g>
								
									<rect x="74.3" y="344.4" transform="matrix(-0.7071 -0.7071 0.7071 -0.7071 -113.4756 647.9667)" class="st32" width="6.3" height="6.3"/>
							</g>
							<g>
								
									<rect x="69.9" y="348.8" transform="matrix(0.7069 -0.7073 0.7073 0.7069 -227.4894 154.785)" class="st33" width="6.3" height="6.3"/>
							</g>
							<g>
								
									<rect x="74.3" y="353.2" transform="matrix(-0.7071 -0.7071 0.7071 -0.7071 -119.7312 663.069)" class="st30" width="6.3" height="6.3"/>
							</g>
							<g>
								<polygon class="st31" points="77.5,360.8 68.6,360.8 73,356.3 								"/>
							</g>
							<g>
								<polygon class="st33" points="86.3,360.8 77.5,360.8 81.9,356.3 								"/>
							</g>
							<g>
								
									<rect x="65.5" y="344.4" transform="matrix(-0.707 -0.7073 0.7073 -0.707 -128.6393 641.6695)" class="st30" width="6.3" height="6.3"/>
							</g>
							<g>
								
									<rect x="61.1" y="348.8" transform="matrix(0.707 -0.7072 0.7072 0.707 -230.059 148.4948)" class="st31" width="6.3" height="6.3"/>
							</g>
							<g>
								
									<rect x="65.5" y="353.2" transform="matrix(-0.707 -0.7073 0.7073 -0.707 -134.8962 656.7704)" class="st32" width="6.3" height="6.3"/>
							</g>
							<g>
								
									<rect x="56.6" y="344.4" transform="matrix(-0.707 -0.7072 0.7072 -0.707 -143.7125 635.4327)" class="st32" width="6.3" height="6.3"/>
							</g>
							<g>
								<polygon class="st30" points="50.9,351.9 50.9,343.1 55.3,347.5 								"/>
							</g>
							<g>
								<polygon class="st32" points="55.3,356.3 50.9,360.8 50.9,351.9 								"/>
							</g>
							<g>
								
									<rect x="52.2" y="348.8" transform="matrix(0.707 -0.7073 0.7073 0.707 -232.6723 142.2676)" class="st33" width="6.3" height="6.3"/>
							</g>
							<g>
								
									<rect x="56.6" y="353.2" transform="matrix(-0.707 -0.7072 0.7072 -0.707 -149.9688 650.5342)" class="st30" width="6.3" height="6.3"/>
							</g>
							<g>
								<polygon class="st31" points="59.8,360.8 50.9,360.8 55.3,356.3 								"/>
							</g>
							<g>
								<polygon class="st33" points="68.6,360.8 59.8,360.8 64.2,356.3 								"/>
							</g>
						</g>
					</g>
				</g>
			</g>
		</g>
	</g>
	<g>
		<path class="st25" d="M59.1,210.8c0.3,3.5,2.5,7.2,4.7,9.3c5.9,5.8,15.3,7.6,22.5,7c6.3-0.5,13.4-1.7,18.3-7.1
			c3.5-3.9,7.5-13.5,0.7-17c-5-2.6-15.4,0.5-20.7,0.5c-6,0-16.5-2.7-22,0.4C59.6,205.5,58.8,208.1,59.1,210.8z"/>
		<g>
			<path class="st11" d="M83.4,227l0.1,0C83.4,227.4,83.3,227.4,83.4,227z"/>
			<path class="st11" d="M83.5,227c0.1-0.2,0.1-0.6-0.1-1.1c-0.6-4.2,3.4-11.4,7.2-9.8c3.3,1.4,4.4,7,5,10.7L83.5,227z"/>
		</g>
		<path class="st11" d="M71.7,226.2c0-4.7,1.4-13.3,6.9-9.2c2.8,2.1,4,6.7,4.3,10.4C82.9,227.4,71.8,227.5,71.7,226.2z"/>
		<g>
			<path class="st25" d="M86.4,228.7c-7.1,0.6-17-1-23.4-7.3c-2.3-2.3-4.8-6.3-5.2-10.4c-0.4-3.7,1.1-6.7,4.1-8.4
				c1.5-0.9,3.4-1.4,5.8-1.6c3.4-0.3,7.3,0.1,10.7,0.5c2.3,0.2,4.4,0.5,6.1,0.5c1.7,0,3.9-0.3,6.3-0.7c1.9-0.3,3.9-0.6,5.9-0.7
				c4.1-0.3,7,0,9,1c3.1,1.6,4.1,4.2,4.4,6.1c0.8,5.2-2.3,10.9-4.6,13.5C100.3,226.8,93,228.2,86.4,228.7z M67.9,204
				c-2.1,0.2-3.7,0.6-4.9,1.3c-2.1,1.2-2.9,2.9-2.7,5.4c0.3,3.2,2.4,6.5,4.2,8.3c5.8,5.7,15.3,7.2,21.7,6.6c6.1-0.5,13-1.7,17.5-6.7
				c2.3-2.6,4.4-7.3,3.9-10.7c-0.3-1.7-1.2-2.9-2.8-3.8c-1.6-0.8-4.2-1.1-7.9-0.8c-1.9,0.2-3.9,0.4-5.8,0.7
				c-2.5,0.4-4.8,0.7-6.6,0.7c-1.8,0-4-0.2-6.3-0.5C74.9,204.2,71.1,203.8,67.9,204z"/>
		</g>
	</g>
</g>
</svg>
